<svg xmlns="http://www.w3.org/2000/svg" xmlns:xlink="http://www.w3.org/1999/xlink" viewBox="0 0 500 500" width="500" height="500" preserveAspectRatio="xMidYMid meet" style="width: 100%; height: 100%; transform: translate3d(0px, 0px, 0px); content-visibility: visible;"><defs><clipPath id="__lottie_element_10"><rect width="500" height="500" x="0" y="0"/></clipPath><clipPath id="__lottie_element_12"><path d="M0,0 L500,0 L500,500 L0,500z"/></clipPath></defs><g clip-path="url(#__lottie_element_10)"><g clip-path="url(#__lottie_element_12)" transform="matrix(1,0,0,1,0,0)" opacity="1" style="display: block;"><g class="primary design" transform="matrix(1,0,0,1,272.7342224121094,250.0030059814453)" opacity="1" style="display: block;"><g opacity="1" transform="matrix(1,0,0,1,0,0)"><path class="primary" fill="rgb(204,197,184)" fill-opacity="1" d=" M116.54900360107422,-17.709999084472656 C116.54900360107422,-17.709999084472656 -94.69999694824219,-147.29299926757812 -94.69999694824219,-147.29299926757812 C-108.44999694824219,-155.8350067138672 -126.36699676513672,-145.83399963378906 -126.36699676513672,-129.37600708007812 C-126.36699676513672,-129.37600708007812 -126.36699676513672,129.58099365234375 -126.36699676513672,129.58099365234375 C-126.36699676513672,145.83099365234375 -108.44999694824219,155.83099365234375 -94.69999694824219,147.28900146484375 C-94.69999694824219,147.28900146484375 116.34100341796875,17.915000915527344 116.34100341796875,17.915000915527344 C129.6739959716797,9.581999778747559 129.6739959716797,-9.585000038146973 116.54900360107422,-17.709999084472656z"/></g></g></g></g></svg>