<svg xmlns="http://www.w3.org/2000/svg" xmlns:xlink="http://www.w3.org/1999/xlink" viewBox="0 0 430 430" width="430" height="430" preserveAspectRatio="xMidYMid meet" style="width: 100%; height: 100%; transform: translate3d(0px, 0px, 0px); content-visibility: visible;"><defs><clipPath id="__lottie_element_59"><rect width="430" height="430" x="0" y="0"/></clipPath><clipPath id="__lottie_element_61"><path d="M0,0 L430,0 L430,430 L0,430z"/></clipPath></defs><g clip-path="url(#__lottie_element_59)"><g clip-path="url(#__lottie_element_61)" transform="matrix(1,0,0,1,0,0)" opacity="1" style="display: block;"><g transform="matrix(1,0,0,1,205,215)" opacity="1" style="display: block;"><g opacity="1" transform="matrix(1,0,0,1,0,0)"><path class="secondary" fill="rgb(57,51,70)" fill-opacity="1" d=" M0,-167.5 C92.44325256347656,-167.5 167.5,-92.44325256347656 167.5,0 C167.5,92.44325256347656 92.44325256347656,167.5 0,167.5 C-92.44325256347656,167.5 -167.5,92.44325256347656 -167.5,0 C-167.5,-92.44325256347656 -92.44325256347656,-167.5 0,-167.5z"/></g></g><g transform="matrix(1,0,0,1,204.99899291992188,215)" opacity="0.5" style="mix-blend-mode: multiply; display: block;"><g opacity="1" transform="matrix(1,0,0,1,0,0)"><path class="secondary" fill="rgb(57,51,70)" fill-opacity="1" d=" M15.90999984741211,15.90999984741211 C15.90999984741211,15.90999984741211 159.30999755859375,-51.85100173950195 159.30999755859375,-51.85100173950195 C151.4219970703125,-76.15399932861328 137.83599853515625,-99.01000213623047 118.5510025024414,-118.33000183105469 C118.5510025024414,-118.33000183105469 118.33000183105469,-118.5510025024414 118.33000183105469,-118.5510025024414 C99.01000213623047,-137.83599853515625 76.15399932861328,-151.4219970703125 51.85100173950195,-159.30999755859375 C51.85100173950195,-159.30999755859375 -15.90999984741211,-15.90999984741211 -15.90999984741211,-15.90999984741211 C-15.90999984741211,-15.90999984741211 -159.30999755859375,51.85100173950195 -159.30999755859375,51.85100173950195 C-151.40699768066406,76.19999694824219 -137.7830047607422,99.09700012207031 -118.44000244140625,118.44000244140625 C-99.09700012207031,137.7830047607422 -76.19999694824219,151.40699768066406 -51.85100173950195,159.30999755859375 C-51.85100173950195,159.30999755859375 15.90999984741211,15.90999984741211 15.90999984741211,15.90999984741211z"/></g></g><g transform="matrix(1,0,0,1,205,215)" opacity="1" style="display: block;"><g opacity="1" transform="matrix(1,0,0,1,0,0)"><path class="tertiary" fill="rgb(43,83,77)" fill-opacity="1" d=" M0,-67.5 C37.25325012207031,-67.5 67.5,-37.25325012207031 67.5,0 C67.5,37.25325012207031 37.25325012207031,67.5 0,67.5 C-37.25325012207031,67.5 -67.5,37.25325012207031 -67.5,0 C-67.5,-37.25325012207031 -37.25325012207031,-67.5 0,-67.5z"/></g></g><g transform="matrix(1,0,0,1,204.52099609375,214.52099609375)" opacity="1" style="display: block;"><g opacity="1" transform="matrix(1,0,0,1,0,0)"><path class="secondary" fill="rgb(57,51,70)" fill-opacity="1" d=" M0,-7.5 C4.139249801635742,-7.5 7.5,-4.139249801635742 7.5,0 C7.5,4.139249801635742 4.139249801635742,7.5 0,7.5 C-4.139249801635742,7.5 -7.5,4.139249801635742 -7.5,0 C-7.5,-4.139249801635742 -4.139249801635742,-7.5 0,-7.5z"/></g></g><g transform="matrix(0.5,-0.8660253882408142,0.8660253882408142,0.5,-186.74871826171875,181.3686065673828)" opacity="1" style="display: block;"><g opacity="1" transform="matrix(1,0,0,1,0,0)"><path class="secondary" fill="rgb(57,51,70)" fill-opacity="1" d=" M0,-167.5 C92.44325256347656,-167.5 167.5,-92.44325256347656 167.5,0 C167.5,92.44325256347656 92.44325256347656,167.5 0,167.5 C-92.44325256347656,167.5 -167.5,92.44325256347656 -167.5,0 C-167.5,-92.44325256347656 -92.44325256347656,-167.5 0,-167.5z"/></g></g><g transform="matrix(1,0,0,1,-186.7492218017578,181.36947631835938)" opacity="0.5" style="mix-blend-mode: multiply; display: block;"><g opacity="1" transform="matrix(1,0,0,1,0,0)"><path class="secondary" fill="rgb(57,51,70)" fill-opacity="1" d=" M15.90999984741211,15.90999984741211 C15.90999984741211,15.90999984741211 159.30999755859375,-51.85100173950195 159.30999755859375,-51.85100173950195 C151.4219970703125,-76.15399932861328 137.83599853515625,-99.01000213623047 118.5510025024414,-118.33000183105469 C118.5510025024414,-118.33000183105469 118.33000183105469,-118.5510025024414 118.33000183105469,-118.5510025024414 C99.01000213623047,-137.83599853515625 76.15399932861328,-151.4219970703125 51.85100173950195,-159.30999755859375 C51.85100173950195,-159.30999755859375 -15.90999984741211,-15.90999984741211 -15.90999984741211,-15.90999984741211 C-15.90999984741211,-15.90999984741211 -159.30999755859375,51.85100173950195 -159.30999755859375,51.85100173950195 C-151.40699768066406,76.19999694824219 -137.7830047607422,99.09700012207031 -118.44000244140625,118.44000244140625 C-99.09700012207031,137.7830047607422 -76.19999694824219,151.40699768066406 -51.85100173950195,159.30999755859375 C-51.85100173950195,159.30999755859375 15.90999984741211,15.90999984741211 15.90999984741211,15.90999984741211z"/></g></g><g transform="matrix(0.5,-0.8660253882408142,0.8660253882408142,0.5,-186.74871826171875,181.3686065673828)" opacity="1" style="display: block;"><g opacity="1" transform="matrix(1,0,0,1,0,0)"><path class="tertiary" fill="rgb(43,83,77)" fill-opacity="1" d=" M0,-67.5 C37.25325012207031,-67.5 67.5,-37.25325012207031 67.5,0 C67.5,37.25325012207031 37.25325012207031,67.5 0,67.5 C-37.25325012207031,67.5 -67.5,37.25325012207031 -67.5,0 C-67.5,-37.25325012207031 -37.25325012207031,-67.5 0,-67.5z"/></g></g><g transform="matrix(0.5,-0.8660253882408142,0.8660253882408142,0.5,-187.40304565429688,181.54393005371094)" opacity="1" style="display: block;"><g opacity="1" transform="matrix(1,0,0,1,0,0)"><path class="secondary" fill="rgb(57,51,70)" fill-opacity="1" d=" M0,-7.5 C4.139249801635742,-7.5 7.5,-4.139249801635742 7.5,0 C7.5,4.139249801635742 4.139249801635742,7.5 0,7.5 C-4.139249801635742,7.5 -7.5,4.139249801635742 -7.5,0 C-7.5,-4.139249801635742 -4.139249801635742,-7.5 0,-7.5z"/></g></g><g transform="matrix(1,0,0,1,205,215)" opacity="1" style="display: block;"><g opacity="1" transform="matrix(1,0,0,1,0,0)"><path stroke-linecap="round" stroke-linejoin="round" fill-opacity="0" class="primary" stroke="rgb(18,19,48)" stroke-opacity="1" stroke-width="7" d=" M0,-167.5 C92.44325256347656,-167.5 167.5,-92.44325256347656 167.5,0 C167.5,92.44325256347656 92.44325256347656,167.5 0,167.5 C-92.44325256347656,167.5 -167.5,92.44325256347656 -167.5,0 C-167.5,-92.44325256347656 -92.44325256347656,-167.5 0,-167.5z"/></g><g opacity="1" transform="matrix(1,0,0,1,0,0)"><path stroke-linecap="round" stroke-linejoin="round" fill-opacity="0" class="primary" stroke="rgb(18,19,48)" stroke-opacity="1" stroke-width="7" d=" M0,-67 C36.977298736572266,-67 67,-36.977298736572266 67,0 C67,36.977298736572266 36.977298736572266,67 0,67 C-36.977298736572266,67 -67,36.977298736572266 -67,0 C-67,-36.977298736572266 -36.977298736572266,-67 0,-67z"/></g><g opacity="1" transform="matrix(1,0,0,1,0,0)"><path stroke-linecap="round" stroke-linejoin="round" fill-opacity="0" class="primary" stroke="rgb(18,19,48)" stroke-opacity="1" stroke-width="13" d=" M-0.43799999356269836,-0.48399999737739563 C-0.43799999356269836,-0.48399999737739563 -0.4059999883174896,-0.453000009059906 -0.4059999883174896,-0.453000009059906"/></g></g><g transform="matrix(0.5,-0.8660253882408142,0.8660253882408142,0.5,-186.74871826171875,181.3686065673828)" opacity="1" style="display: block;"><g opacity="1" transform="matrix(1,0,0,1,0,0)"><path stroke-linecap="round" stroke-linejoin="round" fill-opacity="0" class="primary" stroke="rgb(18,19,48)" stroke-opacity="1" stroke-width="7" d=" M0,-167.5 C92.44325256347656,-167.5 167.5,-92.44325256347656 167.5,0 C167.5,92.44325256347656 92.44325256347656,167.5 0,167.5 C-92.44325256347656,167.5 -167.5,92.44325256347656 -167.5,0 C-167.5,-92.44325256347656 -92.44325256347656,-167.5 0,-167.5z"/></g><g opacity="1" transform="matrix(1,0,0,1,0,0)"><path stroke-linecap="round" stroke-linejoin="round" fill-opacity="0" class="primary" stroke="rgb(18,19,48)" stroke-opacity="1" stroke-width="7" d=" M0,-67 C36.977298736572266,-67 67,-36.977298736572266 67,0 C67,36.977298736572266 36.977298736572266,67 0,67 C-36.977298736572266,67 -67,36.977298736572266 -67,0 C-67,-36.977298736572266 -36.977298736572266,-67 0,-67z"/></g><g opacity="1" transform="matrix(1,0,0,1,0,0)"><path stroke-linecap="round" stroke-linejoin="round" fill-opacity="0" class="primary" stroke="rgb(18,19,48)" stroke-opacity="1" stroke-width="13" d=" M-0.43799999356269836,-0.48399999737739563 C-0.43799999356269836,-0.48399999737739563 -0.4059999883174896,-0.453000009059906 -0.4059999883174896,-0.453000009059906"/></g></g><g transform="matrix(1,0,0,1,323.5169982910156,216.51699829101562)" opacity="1" style="display: block;"><g opacity="1" transform="matrix(1,0,0,1,0,0)"><path class="quaternary" fill="rgb(141,105,58)" fill-opacity="1" d=" M7.425000190734863,-24.395000457763672 C6.252999782562256,-25.566999435424805 4.354000091552734,-25.566999435424805 3.181999921798706,-24.395000457763672 C3.181999921798706,-24.395000457763672 -24.395000457763672,3.181999921798706 -24.395000457763672,3.181999921798706 C-25.566999435424805,4.354000091552734 -25.566999435424805,6.252999782562256 -24.395000457763672,7.425000190734863 C-24.395000457763672,7.425000190734863 -7.425000190734863,24.395000457763672 -7.425000190734863,24.395000457763672 C-6.252999782562256,25.566999435424805 -4.354000091552734,25.566999435424805 -3.181999921798706,24.395000457763672 C-3.181999921798706,24.395000457763672 24.395000457763672,-3.181999921798706 24.395000457763672,-3.181999921798706 C25.566999435424805,-4.354000091552734 25.566999435424805,-6.252999782562256 24.395000457763672,-7.425000190734863 C24.395000457763672,-7.425000190734863 7.425000190734863,-24.395000457763672 7.425000190734863,-24.395000457763672z"/></g></g><g transform="matrix(1,0,0,1,318.8349914550781,211.83499145507812)" opacity="0.5" style="mix-blend-mode: multiply; display: block;"><g opacity="1" transform="matrix(1,0,0,1,0,0)"><path class="quaternary" fill="rgb(141,105,58)" fill-opacity="1" d=" M-19.71299934387207,7.863999843597412 C-19.71299934387207,7.863999843597412 7.863999843597412,-19.71299934387207 7.863999843597412,-19.71299934387207 C9.03600025177002,-20.885000228881836 10.9350004196167,-20.885000228881836 12.107000350952148,-19.71299934387207 C12.107000350952148,-19.71299934387207 20.591999053955078,-11.227999687194824 20.591999053955078,-11.227999687194824 C20.591999053955078,-11.227999687194824 -11.227999687194824,20.591999053955078 -11.227999687194824,20.591999053955078 C-11.227999687194824,20.591999053955078 -19.71299934387207,12.107000350952148 -19.71299934387207,12.107000350952148 C-20.885000228881836,10.9350004196167 -20.885000228881836,9.03600025177002 -19.71299934387207,7.863999843597412z"/></g></g><g transform="matrix(1,0,0,1,346,144.01699829101562)" opacity="1" style="display: block;"><g opacity="1" transform="matrix(1,0,0,1,0,0)"><path stroke-linecap="round" stroke-linejoin="round" fill-opacity="0" class="primary" stroke="rgb(18,19,48)" stroke-opacity="1" stroke-width="7" d=" M-6.5,56.48400115966797 C-6.5,56.48400115966797 49,0.984000027179718 49,0.984000027179718 C49,0.984000027179718 49,-99.01699829101562 49,-99.01699829101562 M4.0329999923706055,67.1969985961914 C4.0329999923706055,67.1969985961914 -17.18000030517578,45.98400115966797 -17.18000030517578,45.98400115966797 C-17.18000030517578,45.98400115966797 -49,77.8030014038086 -49,77.8030014038086 C-49,77.8030014038086 -27.78700065612793,99.01699829101562 -27.78700065612793,99.01699829101562 C-27.78700065612793,99.01699829101562 4.0329999923706055,67.1969985961914 4.0329999923706055,67.1969985961914z"/></g></g></g></g></svg>